<?xml version="1.0" encoding="UTF-8"?>
<svg xmlns="http://www.w3.org/2000/svg" viewBox="0 0 64 64">
<style>
.gedankenfolger-faq-bg {
  fill: #fff;
}

.gedankenfolger-faq-accent {
  fill: #b2ba2e;
}

.gedankenfolger-faq-primary-path-1 {
  fill: #3f4249;
}

.gedankenfolger-faq-primary-path-2 {
  fill: #3f4249;
}
</style>
<g id="bg"><rect width="64" height="64" class="gedankenfolger-faq-bg"/></g><g id="accent"><polygon points="64 64 0 64 64 0 64 64" class="gedankenfolger-faq-accent"/></g><g id="primary"><path d="M32,19.37c-.01-.57-.04-1.19-.33-1.7-.14-.26-.33-.5-.53-.72-.15-.15-.23-.17-.23-.36,0-.59.02-1.18,0-1.76,0-2.49-2.61-4.62-4.89-5.05-.33-.06-.67-.1-1.01-.12-.16,0-.32-.01-.48-.02-.06-.14-.11-.27-.18-.4-.34-.65-.82-1.25-1.32-1.79-.95-1-2.1-1.83-3.42-2.27-1.43-.48-2.93-.46-4.43-.47-1.43-.02-2.9.04-4.26.54-2.6.94-5.09,3.49-5.09,6.33v4.51c-.59-.07-1.09.46-1.41.88-.46.61-.47,1.3-.49,2.03-.02.63-.02,1.28.11,1.9.13.65.65,1.14,1.13,1.58.24.22.49.44.75.65.15.12.57.33.64.5.08.18-.03.61-.04.81,0,.42,0,.84.03,1.26.04.64.08,1.39.34,1.98.3.68.78,1.26,1.25,1.83.93,1.14,1.97,2.19,3.08,3.16.53.46,1.08.91,1.65,1.34.6.45,1.09.82,1.86.92.63.09,1.3.05,1.91-.14.64-.2,1.2-.76,1.72-1.16,1.15-.91,2.25-1.9,3.24-2.98.28-.3.54-.6.8-.91.37.17.77.26,1.17.3.76.06,1.59-.06,2.23-.49,1.32-.9,2.53-2.04,3.54-3.28.37-.46.76-.95.94-1.53.2-.64.26-1.33.26-2,.53-.44,1.07-.97,1.3-1.63.11-.33.16-.68.18-1.03.01-.23.02-.46.01-.69-.04-.03-.21,0-.26,0,.09,0,.17,0,.26,0ZM30.42,20.21c-.06.52-.35.84-.73,1.19-.2.18-.41.35-.62.51-.19.14-.12.23-.11.47.02.54,0,1.1-.12,1.63-.13.58-.51,1.02-.88,1.47-.72.86-1.54,1.64-2.43,2.33-.42.33-.79.63-1.34.69-.62.07-1.11-.08-1.59-.44-.89-.67-1.73-1.41-2.47-2.24-.35-.4-.78-.84-1.01-1.32-.25-.51-.28-1.14-.29-1.7,0-.25,0-.51.02-.76,0-.08-.36-.3-.42-.35-.46-.37-.96-.78-1.05-1.39-.07-.53-.07-1.09.02-1.62.06-.42.56-1.04,1.04-.99,0-.95-.05-1.91,0-2.85,0-1.09.94-2.1,1.76-2.72,1.08-.82,2.38-.97,3.7-.94,1.27.01,2.49.09,3.56.84.88.62,1.9,1.69,1.9,2.83.05.95,0,1.91,0,2.86.42-.05.92.49,1.01.86.12.52.11,1.13.05,1.66-.02.13.03-.26,0,0Z" class="gedankenfolger-faq-primary gedankenfolger-faq-primary-path-1"/><path d="M51.02,51.8h-4.65c-.43,0-.77.35-.77.77v4.65c0,.43.35.77.77.77h4.65c.43,0,.77-.35.77-.77v-4.65c0-.43-.35-.77-.77-.77ZM57.84,34.6c-.71-3.77-3.66-6.73-7.44-7.44-5.05-.94-9.91,2.39-10.86,7.45-.05.29-.09.58-.12.87-.04.44.34.83.79.83h4.68c.39,0,.68-.3.77-.69.4-1.67,2.08-2.69,3.75-2.29,1.38.33,2.36,1.56,2.38,2.98-.01,1.06-.58,2.04-1.49,2.58-2.91,1.64-4.71,4.72-4.71,8.06v.98c0,.43.35.77.77.77h4.65c.43,0,.77-.35.77-.77v-.98c0-1.11.62-2.04,1.51-2.59,3.44-1.95,5.26-5.87,4.54-9.75Z" class="gedankenfolger-faq-primary gedankenfolger-faq-primary-path-2"/></g></svg>